<svg width="219" height="44" viewBox="0 0 219 44" fill="none" xmlns="http://www.w3.org/2000/svg">
<g clip-path="url(#clip0_2291_8251)">
<path d="M6.69839 13.702H-0.419922V29.8202H6.5389C11.8944 29.8202 15.5039 26.5557 15.5039 21.7529C15.5039 16.9502 11.9448 13.7102 6.70678 13.7102L6.69839 13.702ZM6.81591 26.4166H3.89472V17.1302H6.60605C9.22505 17.1302 11.0886 19.012 11.0886 21.7938C11.0886 24.5757 9.31739 26.4166 6.81591 26.4166Z" fill="#222222"/>
<path d="M108.588 15.7473C109.696 15.7473 110.502 14.9618 110.502 13.8818C110.502 12.8018 109.696 12 108.588 12C107.48 12 106.674 12.7855 106.674 13.8818C106.674 14.9782 107.48 15.7473 108.588 15.7473Z" fill="#222222"/>
<path d="M36.6591 17.22C34.5606 17.22 32.7222 17.7028 30.716 18.5782L31.8744 21.3355C33.2427 20.6891 34.6361 20.3455 35.6938 20.3455C37.2971 20.3455 38.1197 21.0328 38.1197 22.2109V22.35H34.7956C31.631 22.3991 29.9102 23.7491 29.9102 26.1218C29.9102 28.4946 31.5386 30.0082 34.2752 30.0082C35.996 30.0082 37.2971 29.46 38.1197 28.4209V29.82H42.2497V21.7282C42.2245 18.8809 40.1763 17.22 36.6591 17.22ZM38.1197 25.6146C37.8595 26.5555 36.8186 27.2264 35.5763 27.2264C34.4934 27.2264 33.8554 26.6782 33.8554 25.8273C33.8554 24.9764 34.443 24.5428 35.6266 24.5428H38.1281V25.6228L38.1197 25.6146Z" fill="#222222"/>
<path d="M119.332 17.2447C115.135 17.2447 112.373 19.7729 112.373 23.5856C112.373 27.3983 115.135 29.9511 119.332 29.9511C123.529 29.9511 126.316 27.4229 126.316 23.5856C126.316 19.7483 123.529 17.2447 119.332 17.2447ZM119.332 26.7356C117.703 26.7356 116.595 25.492 116.595 23.6347C116.595 21.7774 117.703 20.5583 119.332 20.5583C120.96 20.5583 122.094 21.802 122.094 23.6347C122.094 25.4674 120.986 26.7356 119.332 26.7356Z" fill="#222222"/>
<path d="M102.586 26.6864C101.856 26.7109 101.427 26.2937 101.427 25.3773V20.6891H104.726V17.9727H101.427V14.5282H97.2556V17.9727H95.4844V20.6891H97.2556V26.0237C97.2556 28.6009 99.0435 30.0246 101.528 30C102.779 30 104.055 29.6973 104.97 29.1737L104.164 26.2773C103.551 26.5309 103.006 26.6946 102.586 26.6946V26.6864Z" fill="#222222"/>
<path d="M110.66 17.3752H106.488V29.8115H110.66V17.3752Z" fill="#222222"/>
<path d="M136.398 17.22C134.534 17.22 133.074 17.9809 132.176 19.4046V17.3837H127.979V29.82H132.176V23.2419C132.344 21.8428 133.258 20.8937 134.677 20.8773C135.995 20.8773 136.843 21.7528 136.843 23.1519V29.82H141.015V21.9818C141.015 19.0609 139.176 17.22 136.39 17.22H136.398Z" fill="#222222"/>
<path d="M88.7275 17.22C86.6289 17.22 84.7906 17.7028 82.7844 18.5782L83.9428 21.3355C85.311 20.6891 86.7045 20.3455 87.7622 20.3455C89.3655 20.3455 90.1881 21.0328 90.1881 22.2109V22.35H86.864C83.7077 22.3991 81.9785 23.7491 81.9785 26.1218C81.9785 28.4946 83.607 30.0082 86.3435 30.0082C88.0643 30.0082 89.3655 29.46 90.1881 28.4209V29.82H94.318V21.7282C94.2929 18.8809 92.2447 17.22 88.7275 17.22ZM90.1881 25.6146C89.9279 26.5555 88.8954 27.2264 87.6446 27.2264C86.5618 27.2264 85.9238 26.6782 85.9238 25.8273C85.9238 24.9764 86.5114 24.5428 87.695 24.5428H90.1965V25.6228L90.1881 25.6146Z" fill="#222222"/>
<path d="M22.783 17.2447C18.7957 17.2447 16.1348 19.7974 16.1348 23.6592C16.1348 27.5211 18.7034 29.9592 22.8753 29.9592C25.2341 29.9592 27.148 29.1738 28.4407 27.7501L26.2498 25.6147C25.402 26.4411 24.3359 26.8829 23.2531 26.8829C21.8177 26.8829 20.7516 26.0974 20.3487 24.6983H29.213C29.4984 20.1738 27.2319 17.2529 22.7746 17.2529L22.783 17.2447ZM20.2563 22.5056C20.5417 21.082 21.4315 20.1165 22.7998 20.1165C24.168 20.1165 25.1586 21.082 25.1586 22.5056H20.2563Z" fill="#222222"/>
<path d="M48.9139 12.7609H44.7168V29.82H48.9139V12.7609Z" fill="#222222"/>
<path d="M65.8281 19.9855C64.1324 19.5191 62.7138 19.1182 62.7138 18.0464C62.7138 17.31 63.4021 16.9419 64.4346 16.9419C65.8029 16.9419 68.019 17.7028 69.765 18.6682L71.3934 15.3382C69.6726 14.2582 67.2215 13.5219 64.7872 13.5219C60.7999 13.5219 58.1809 15.4282 58.1809 18.4391C58.1809 21.81 61.2196 22.6119 63.7043 23.2664C65.4251 23.7164 66.8857 24.1009 66.8857 25.2218C66.8857 26.0728 66.0799 26.5309 64.8124 26.5309C63.0915 26.5309 60.5229 25.5164 58.8189 24.0928L57.1484 27.3818C59.1295 28.9691 62.0087 29.9591 64.7704 29.9591C68.4471 29.9591 71.4186 28.2818 71.4186 24.9928C71.4186 21.54 68.3295 20.6809 65.8365 19.9937L65.8281 19.9855Z" fill="#222222"/>
<path d="M79.0644 26.6864C78.3341 26.7109 77.906 26.2937 77.906 25.3773V20.6891H81.2049V17.9727H77.906V14.5282H73.7341V17.9727H71.9629V20.6891H73.7341V26.0237C73.7341 28.6009 75.5304 30.0246 77.9983 30C79.2491 30 80.525 29.6973 81.44 29.1737L80.6341 26.2773C80.0214 26.5309 79.4757 26.6946 79.056 26.6946L79.0644 26.6864Z" fill="#222222"/>
</g>
<defs>
<clipPath id="clip0_2291_8251">
<rect width="218.25" height="18" fill="white" transform="translate(0 12)"/>
</clipPath>
</defs>
</svg>
